<svg xmlns="http://www.w3.org/2000/svg"  preserveAspectRatio="none" viewBox="0 0 1084 320">
<defs>
  <pattern id="pid-0.671846779428106" x="0" y="0" width="304.64000000000004" height="304.64000000000004" patternUnits="userSpaceOnUse">
    <g transform="scale(1.1900000000000002)">
    <g>
  <line x1="224.90507595297922" x2="217.42038408708268" y1="31.85509916117862" y2="39.33979102707517" stroke-width="2" stroke="gray" stroke-linecap="round"></line><line x1="224.90507595297922" x2="217.42038408708268" y1="-480.1449008388214" y2="-472.6602089729248" stroke-width="2" stroke="#c4c4c4" stroke-linecap="round"></line><line x1="480.90507595297925" x2="473.42038408708265" y1="-480.1449008388214" y2="-472.6602089729248" stroke-width="2" stroke="#c4c4c4" stroke-linecap="round"></line><line x1="736.9050759529792" x2="729.4203840870827" y1="-480.1449008388214" y2="-472.6602089729248" stroke-width="2" stroke="#c4c4c4" stroke-linecap="round"></line><line x1="224.90507595297922" x2="217.42038408708268" y1="-224.14490083882137" y2="-216.66020897292483" stroke-width="2" stroke="#c4c4c4" stroke-linecap="round"></line><line x1="480.90507595297925" x2="473.42038408708265" y1="-224.14490083882137" y2="-216.66020897292483" stroke-width="2" stroke="#c4c4c4" stroke-linecap="round"></line><line x1="736.9050759529792" x2="729.4203840870827" y1="-224.14490083882137" y2="-216.66020897292483" stroke-width="2" stroke="#c4c4c4" stroke-linecap="round"></line><line x1="224.90507595297922" x2="217.42038408708268" y1="31.85509916117862" y2="39.33979102707517" stroke-width="2" stroke="#c4c4c4" stroke-linecap="round"></line><line x1="480.90507595297925" x2="473.42038408708265" y1="31.85509916117862" y2="39.33979102707517" stroke-width="2" stroke="#c4c4c4" stroke-linecap="round"></line><line x1="736.9050759529792" x2="729.4203840870827" y1="31.85509916117862" y2="39.33979102707517" stroke-width="2" stroke="#c4c4c4" stroke-linecap="round"></line><line x1="76.12445068079583" x2="68.71879188704779" y1="33.995032690486916" y2="41.40069148423495" stroke-width="2" stroke="#c4c4c4" stroke-linecap="round"></line><line x1="76.12445068079583" x2="68.71879188704779" y1="-478.00496730951306" y2="-470.5993085157651" stroke-width="2" stroke="#c4c4c4" stroke-linecap="round"></line><line x1="332.1244506807958" x2="324.7187918870478" y1="-478.00496730951306" y2="-470.5993085157651" stroke-width="2" stroke="#c4c4c4" stroke-linecap="round"></line><line x1="588.1244506807958" x2="580.7187918870478" y1="-478.00496730951306" y2="-470.5993085157651" stroke-width="2" stroke="#c4c4c4" stroke-linecap="round"></line><line x1="76.12445068079583" x2="68.71879188704779" y1="-222.0049673095131" y2="-214.59930851576505" stroke-width="2" stroke="#c4c4c4" stroke-linecap="round"></line><line x1="332.1244506807958" x2="324.7187918870478" y1="-222.0049673095131" y2="-214.59930851576505" stroke-width="2" stroke="#c4c4c4" stroke-linecap="round"></line><line x1="588.1244506807958" x2="580.7187918870478" y1="-222.0049673095131" y2="-214.59930851576505" stroke-width="2" stroke="#c4c4c4" stroke-linecap="round"></line><line x1="76.12445068079583" x2="68.71879188704779" y1="33.995032690486916" y2="41.40069148423495" stroke-width="2" stroke="#c4c4c4" stroke-linecap="round"></line><line x1="332.1244506807958" x2="324.7187918870478" y1="33.995032690486916" y2="41.40069148423495" stroke-width="2" stroke="#c4c4c4" stroke-linecap="round"></line><line x1="588.1244506807958" x2="580.7187918870478" y1="33.995032690486916" y2="41.40069148423495" stroke-width="2" stroke="#c4c4c4" stroke-linecap="round"></line><line x1="55.94436576725436" x2="52.00789798128833" y1="54.41559701428887" y2="58.3520648002549" stroke-width="2" stroke="#c4c4c4" stroke-linecap="round"></line><line x1="55.94436576725436" x2="52.00789798128833" y1="-457.5844029857111" y2="-453.6479351997451" stroke-width="2" stroke="#c4c4c4" stroke-linecap="round"></line><line x1="311.94436576725434" x2="308.00789798128835" y1="-457.5844029857111" y2="-453.6479351997451" stroke-width="2" stroke="#c4c4c4" stroke-linecap="round"></line><line x1="567.9443657672543" x2="564.0078979812884" y1="-457.5844029857111" y2="-453.6479351997451" stroke-width="2" stroke="#c4c4c4" stroke-linecap="round"></line><line x1="55.94436576725436" x2="52.00789798128833" y1="-201.58440298571114" y2="-197.6479351997451" stroke-width="2" stroke="#c4c4c4" stroke-linecap="round"></line><line x1="311.94436576725434" x2="308.00789798128835" y1="-201.58440298571114" y2="-197.6479351997451" stroke-width="2" stroke="#c4c4c4" stroke-linecap="round"></line><line x1="567.9443657672543" x2="564.0078979812884" y1="-201.58440298571114" y2="-197.6479351997451" stroke-width="2" stroke="#c4c4c4" stroke-linecap="round"></line><line x1="55.94436576725436" x2="52.00789798128833" y1="54.41559701428887" y2="58.3520648002549" stroke-width="2" stroke="#c4c4c4" stroke-linecap="round"></line><line x1="311.94436576725434" x2="308.00789798128835" y1="54.41559701428887" y2="58.3520648002549" stroke-width="2" stroke="#c4c4c4" stroke-linecap="round"></line><line x1="567.9443657672543" x2="564.0078979812884" y1="54.41559701428887" y2="58.3520648002549" stroke-width="2" stroke="#c4c4c4" stroke-linecap="round"></line><line x1="130.76396214429928" x2="125.93611534766035" y1="63.801797110615325" y2="68.62964390725426" stroke-width="2" stroke="#c4c4c4" stroke-linecap="round"></line><line x1="130.76396214429928" x2="125.93611534766035" y1="-448.1982028893847" y2="-443.37035609274574" stroke-width="2" stroke="#c4c4c4" stroke-linecap="round"></line><line x1="386.7639621442993" x2="381.93611534766035" y1="-448.1982028893847" y2="-443.37035609274574" stroke-width="2" stroke="#c4c4c4" stroke-linecap="round"></line><line x1="642.7639621442993" x2="637.9361153476603" y1="-448.1982028893847" y2="-443.37035609274574" stroke-width="2" stroke="#c4c4c4" stroke-linecap="round"></line><line x1="130.76396214429928" x2="125.93611534766035" y1="-192.19820288938467" y2="-187.37035609274574" stroke-width="2" stroke="#c4c4c4" stroke-linecap="round"></line><line x1="386.7639621442993" x2="381.93611534766035" y1="-192.19820288938467" y2="-187.37035609274574" stroke-width="2" stroke="#c4c4c4" stroke-linecap="round"></line><line x1="642.7639621442993" x2="637.9361153476603" y1="-192.19820288938467" y2="-187.37035609274574" stroke-width="2" stroke="#c4c4c4" stroke-linecap="round"></line><line x1="130.76396214429928" x2="125.93611534766035" y1="63.801797110615325" y2="68.62964390725426" stroke-width="2" stroke="#c4c4c4" stroke-linecap="round"></line><line x1="386.7639621442993" x2="381.93611534766035" y1="63.801797110615325" y2="68.62964390725426" stroke-width="2" stroke="#c4c4c4" stroke-linecap="round"></line><line x1="642.7639621442993" x2="637.9361153476603" y1="63.801797110615325" y2="68.62964390725426" stroke-width="2" stroke="#c4c4c4" stroke-linecap="round"></line><line x1="84.49553669945907" x2="78.97237622737704" y1="116.20795381182849" y2="121.73111428391051" stroke-width="2" stroke="#c4c4c4" stroke-linecap="round"></line><line x1="84.49553669945907" x2="78.97237622737704" y1="-395.7920461881715" y2="-390.26888571608947" stroke-width="2" stroke="#c4c4c4" stroke-linecap="round"></line><line x1="340.4955366994591" x2="334.972376227377" y1="-395.7920461881715" y2="-390.26888571608947" stroke-width="2" stroke="#c4c4c4" stroke-linecap="round"></line><line x1="596.4955366994591" x2="590.972376227377" y1="-395.7920461881715" y2="-390.26888571608947" stroke-width="2" stroke="#c4c4c4" stroke-linecap="round"></line><line x1="84.49553669945907" x2="78.97237622737704" y1="-139.79204618817153" y2="-134.26888571608947" stroke-width="2" stroke="#c4c4c4" stroke-linecap="round"></line><line x1="340.4955366994591" x2="334.972376227377" y1="-139.79204618817153" y2="-134.26888571608947" stroke-width="2" stroke="#c4c4c4" stroke-linecap="round"></line><line x1="596.4955366994591" x2="590.972376227377" y1="-139.79204618817153" y2="-134.26888571608947" stroke-width="2" stroke="#c4c4c4" stroke-linecap="round"></line><line x1="84.49553669945907" x2="78.97237622737704" y1="116.20795381182849" y2="121.73111428391051" stroke-width="2" stroke="#c4c4c4" stroke-linecap="round"></line><line x1="340.4955366994591" x2="334.972376227377" y1="116.20795381182849" y2="121.73111428391051" stroke-width="2" stroke="#c4c4c4" stroke-linecap="round"></line><line x1="596.4955366994591" x2="590.972376227377" y1="116.20795381182849" y2="121.73111428391051" stroke-width="2" stroke="#c4c4c4" stroke-linecap="round"></line><line x1="231.81747048943473" x2="225.85896819118423" y1="238.61180539362678" y2="244.57030769187728" stroke-width="2" stroke="#c4c4c4" stroke-linecap="round"></line><line x1="231.81747048943473" x2="225.85896819118423" y1="-273.3881946063732" y2="-267.42969230812275" stroke-width="2" stroke="#c4c4c4" stroke-linecap="round"></line><line x1="487.81747048943475" x2="481.8589681911842" y1="-273.3881946063732" y2="-267.42969230812275" stroke-width="2" stroke="#c4c4c4" stroke-linecap="round"></line><line x1="743.8174704894348" x2="737.8589681911842" y1="-273.3881946063732" y2="-267.42969230812275" stroke-width="2" stroke="#c4c4c4" stroke-linecap="round"></line><line x1="231.81747048943473" x2="225.85896819118423" y1="-17.38819460637322" y2="-11.429692308122725" stroke-width="2" stroke="#c4c4c4" stroke-linecap="round"></line><line x1="487.81747048943475" x2="481.8589681911842" y1="-17.38819460637322" y2="-11.429692308122725" stroke-width="2" stroke="#c4c4c4" stroke-linecap="round"></line><line x1="743.8174704894348" x2="737.8589681911842" y1="-17.38819460637322" y2="-11.429692308122725" stroke-width="2" stroke="#c4c4c4" stroke-linecap="round"></line><line x1="231.81747048943473" x2="225.85896819118423" y1="238.61180539362678" y2="244.57030769187728" stroke-width="2" stroke="#c4c4c4" stroke-linecap="round"></line><line x1="487.81747048943475" x2="481.8589681911842" y1="238.61180539362678" y2="244.57030769187728" stroke-width="2" stroke="#c4c4c4" stroke-linecap="round"></line><line x1="743.8174704894348" x2="737.8589681911842" y1="238.61180539362678" y2="244.57030769187728" stroke-width="2" stroke="#c4c4c4" stroke-linecap="round"></line><line x1="201.18822447750068" x2="196.84444400622004" y1="83.40232252887171" y2="87.74610300015235" stroke-width="2" stroke="#c4c4c4" stroke-linecap="round"></line><line x1="201.18822447750068" x2="196.84444400622004" y1="-428.5976774711283" y2="-424.25389699984765" stroke-width="2" stroke="#c4c4c4" stroke-linecap="round"></line><line x1="457.1882244775007" x2="452.84444400622004" y1="-428.5976774711283" y2="-424.25389699984765" stroke-width="2" stroke="#c4c4c4" stroke-linecap="round"></line><line x1="713.1882244775006" x2="708.8444440062201" y1="-428.5976774711283" y2="-424.25389699984765" stroke-width="2" stroke="#c4c4c4" stroke-linecap="round"></line><line x1="201.18822447750068" x2="196.84444400622004" y1="-172.5976774711283" y2="-168.25389699984765" stroke-width="2" stroke="#c4c4c4" stroke-linecap="round"></line><line x1="457.1882244775007" x2="452.84444400622004" y1="-172.5976774711283" y2="-168.25389699984765" stroke-width="2" stroke="#c4c4c4" stroke-linecap="round"></line><line x1="713.1882244775006" x2="708.8444440062201" y1="-172.5976774711283" y2="-168.25389699984765" stroke-width="2" stroke="#c4c4c4" stroke-linecap="round"></line><line x1="201.18822447750068" x2="196.84444400622004" y1="83.40232252887171" y2="87.74610300015235" stroke-width="2" stroke="#c4c4c4" stroke-linecap="round"></line><line x1="457.1882244775007" x2="452.84444400622004" y1="83.40232252887171" y2="87.74610300015235" stroke-width="2" stroke="#c4c4c4" stroke-linecap="round"></line><line x1="713.1882244775006" x2="708.8444440062201" y1="83.40232252887171" y2="87.74610300015235" stroke-width="2" stroke="#c4c4c4" stroke-linecap="round"></line><line x1="51.54222502949395" x2="45.23096206350587" y1="34.38705141530281" y2="40.698314381290885" stroke-width="2" stroke="#c4c4c4" stroke-linecap="round"></line><line x1="51.54222502949395" x2="45.23096206350587" y1="-477.61294858469716" y2="-471.30168561870914" stroke-width="2" stroke="#c4c4c4" stroke-linecap="round"></line><line x1="307.5422250294939" x2="301.2309620635059" y1="-477.61294858469716" y2="-471.30168561870914" stroke-width="2" stroke="#c4c4c4" stroke-linecap="round"></line><line x1="563.5422250294939" x2="557.2309620635059" y1="-477.61294858469716" y2="-471.30168561870914" stroke-width="2" stroke="#c4c4c4" stroke-linecap="round"></line><line x1="51.54222502949395" x2="45.23096206350587" y1="-221.6129485846972" y2="-215.30168561870912" stroke-width="2" stroke="#c4c4c4" stroke-linecap="round"></line><line x1="307.5422250294939" x2="301.2309620635059" y1="-221.6129485846972" y2="-215.30168561870912" stroke-width="2" stroke="#c4c4c4" stroke-linecap="round"></line><line x1="563.5422250294939" x2="557.2309620635059" y1="-221.6129485846972" y2="-215.30168561870912" stroke-width="2" stroke="#c4c4c4" stroke-linecap="round"></line><line x1="51.54222502949395" x2="45.23096206350587" y1="34.38705141530281" y2="40.698314381290885" stroke-width="2" stroke="#c4c4c4" stroke-linecap="round"></line><line x1="307.5422250294939" x2="301.2309620635059" y1="34.38705141530281" y2="40.698314381290885" stroke-width="2" stroke="#c4c4c4" stroke-linecap="round"></line><line x1="563.5422250294939" x2="557.2309620635059" y1="34.38705141530281" y2="40.698314381290885" stroke-width="2" stroke="#c4c4c4" stroke-linecap="round"></line><line x1="225.40696278201818" x2="221.90144456154138" y1="253.8868092450649" y2="257.3923274655417" stroke-width="2" stroke="#c4c4c4" stroke-linecap="round"></line><line x1="225.40696278201818" x2="221.90144456154138" y1="-258.1131907549351" y2="-254.6076725344583" stroke-width="2" stroke="#c4c4c4" stroke-linecap="round"></line><line x1="481.4069627820182" x2="477.9014445615414" y1="-258.1131907549351" y2="-254.6076725344583" stroke-width="2" stroke="#c4c4c4" stroke-linecap="round"></line><line x1="737.4069627820181" x2="733.9014445615414" y1="-258.1131907549351" y2="-254.6076725344583" stroke-width="2" stroke="#c4c4c4" stroke-linecap="round"></line><line x1="225.40696278201818" x2="221.90144456154138" y1="-2.11319075493509" y2="1.3923274655417117" stroke-width="2" stroke="#c4c4c4" stroke-linecap="round"></line><line x1="481.4069627820182" x2="477.9014445615414" y1="-2.11319075493509" y2="1.3923274655417117" stroke-width="2" stroke="#c4c4c4" stroke-linecap="round"></line><line x1="737.4069627820181" x2="733.9014445615414" y1="-2.11319075493509" y2="1.3923274655417117" stroke-width="2" stroke="#c4c4c4" stroke-linecap="round"></line><line x1="225.40696278201818" x2="221.90144456154138" y1="253.8868092450649" y2="257.3923274655417" stroke-width="2" stroke="#c4c4c4" stroke-linecap="round"></line><line x1="481.4069627820182" x2="477.9014445615414" y1="253.8868092450649" y2="257.3923274655417" stroke-width="2" stroke="#c4c4c4" stroke-linecap="round"></line><line x1="737.4069627820181" x2="733.9014445615414" y1="253.8868092450649" y2="257.3923274655417" stroke-width="2" stroke="#c4c4c4" stroke-linecap="round"></line><line x1="167.42827222343686" x2="164.73597380238" y1="27.88671977729126" y2="30.57901819834814" stroke-width="2" stroke="#c4c4c4" stroke-linecap="round"></line><line x1="167.42827222343686" x2="164.73597380238" y1="-484.11328022270874" y2="-481.42098180165186" stroke-width="2" stroke="#c4c4c4" stroke-linecap="round"></line><line x1="423.42827222343686" x2="420.73597380238" y1="-484.11328022270874" y2="-481.42098180165186" stroke-width="2" stroke="#c4c4c4" stroke-linecap="round"></line><line x1="679.4282722234368" x2="676.7359738023799" y1="-484.11328022270874" y2="-481.42098180165186" stroke-width="2" stroke="#c4c4c4" stroke-linecap="round"></line><line x1="167.42827222343686" x2="164.73597380238" y1="-228.11328022270874" y2="-225.42098180165186" stroke-width="2" stroke="#c4c4c4" stroke-linecap="round"></line><line x1="423.42827222343686" x2="420.73597380238" y1="-228.11328022270874" y2="-225.42098180165186" stroke-width="2" stroke="#c4c4c4" stroke-linecap="round"></line><line x1="679.4282722234368" x2="676.7359738023799" y1="-228.11328022270874" y2="-225.42098180165186" stroke-width="2" stroke="#c4c4c4" stroke-linecap="round"></line><line x1="167.42827222343686" x2="164.73597380238" y1="27.88671977729126" y2="30.57901819834814" stroke-width="2" stroke="#c4c4c4" stroke-linecap="round"></line><line x1="423.42827222343686" x2="420.73597380238" y1="27.88671977729126" y2="30.57901819834814" stroke-width="2" stroke="#c4c4c4" stroke-linecap="round"></line><line x1="679.4282722234368" x2="676.7359738023799" y1="27.88671977729126" y2="30.57901819834814" stroke-width="2" stroke="#c4c4c4" stroke-linecap="round"></line>
  <animateTransform attributeName="transform" type="translate" values="0 0;-256 256" keyTimes="0;1" repeatCount="indefinite" dur="0.99"></animateTransform>
</g>
    <g>
  <line x1="36.8124891728177" x2="33.36724154110831" y1="60.716924772730884" y2="64.16217240444028" stroke-width="1" stroke="#c4c4c4" stroke-linecap="round"></line><line x1="36.8124891728177" x2="33.36724154110831" y1="-451.28307522726914" y2="-447.8378275955597" stroke-width="2" stroke="#c4c4c4" stroke-linecap="round"></line><line x1="292.8124891728177" x2="289.3672415411083" y1="-451.28307522726914" y2="-447.8378275955597" stroke-width="2" stroke="#c4c4c4" stroke-linecap="round"></line><line x1="548.8124891728177" x2="545.3672415411083" y1="-451.28307522726914" y2="-447.8378275955597" stroke-width="2" stroke="#c4c4c4" stroke-linecap="round"></line><line x1="36.8124891728177" x2="33.36724154110831" y1="-195.2830752272691" y2="-191.8378275955597" stroke-width="2" stroke="#c4c4c4" stroke-linecap="round"></line><line x1="292.8124891728177" x2="289.3672415411083" y1="-195.2830752272691" y2="-191.8378275955597" stroke-width="2" stroke="#c4c4c4" stroke-linecap="round"></line><line x1="548.8124891728177" x2="545.3672415411083" y1="-195.2830752272691" y2="-191.8378275955597" stroke-width="2" stroke="#c4c4c4" stroke-linecap="round"></line><line x1="36.8124891728177" x2="33.36724154110831" y1="60.716924772730884" y2="64.16217240444028" stroke-width="2" stroke="#c4c4c4" stroke-linecap="round"></line><line x1="292.8124891728177" x2="289.3672415411083" y1="60.716924772730884" y2="64.16217240444028" stroke-width="2" stroke="#c4c4c4" stroke-linecap="round"></line><line x1="548.8124891728177" x2="545.3672415411083" y1="60.716924772730884" y2="64.16217240444028" stroke-width="2" stroke="#c4c4c4" stroke-linecap="round"></line><line x1="84.17818931488256" x2="81.45232193316662" y1="17.382072701972668" y2="20.107940083688625" stroke-width="2" stroke="#c4c4c4" stroke-linecap="round"></line><line x1="84.17818931488256" x2="81.45232193316662" y1="-494.6179272980273" y2="-491.8920599163114" stroke-width="2" stroke="#c4c4c4" stroke-linecap="round"></line><line x1="340.17818931488256" x2="337.4523219331666" y1="-494.6179272980273" y2="-491.8920599163114" stroke-width="2" stroke="#c4c4c4" stroke-linecap="round"></line><line x1="596.1781893148825" x2="593.4523219331666" y1="-494.6179272980273" y2="-491.8920599163114" stroke-width="2" stroke="#c4c4c4" stroke-linecap="round"></line><line x1="84.17818931488256" x2="81.45232193316662" y1="-238.61792729802733" y2="-235.89205991631138" stroke-width="2" stroke="#c4c4c4" stroke-linecap="round"></line><line x1="340.17818931488256" x2="337.4523219331666" y1="-238.61792729802733" y2="-235.89205991631138" stroke-width="2" stroke="#c4c4c4" stroke-linecap="round"></line><line x1="596.1781893148825" x2="593.4523219331666" y1="-238.61792729802733" y2="-235.89205991631138" stroke-width="2" stroke="#c4c4c4" stroke-linecap="round"></line><line x1="84.17818931488256" x2="81.45232193316662" y1="17.382072701972668" y2="20.107940083688625" stroke-width="2" stroke="#c4c4c4" stroke-linecap="round"></line><line x1="340.17818931488256" x2="337.4523219331666" y1="17.382072701972668" y2="20.107940083688625" stroke-width="2" stroke="#c4c4c4" stroke-linecap="round"></line><line x1="596.1781893148825" x2="593.4523219331666" y1="17.382072701972668" y2="20.107940083688625" stroke-width="2" stroke="#c4c4c4" stroke-linecap="round"></line><line x1="203.48119419062763" x2="196.16356669848497" y1="45.246187637012746" y2="52.56381512915542" stroke-width="2" stroke="#c4c4c4" stroke-linecap="round"></line><line x1="203.48119419062763" x2="196.16356669848497" y1="-466.7538123629873" y2="-459.43618487084456" stroke-width="2" stroke="#c4c4c4" stroke-linecap="round"></line><line x1="459.48119419062766" x2="452.16356669848494" y1="-466.7538123629873" y2="-459.43618487084456" stroke-width="2" stroke="#c4c4c4" stroke-linecap="round"></line><line x1="715.4811941906277" x2="708.1635666984849" y1="-466.7538123629873" y2="-459.43618487084456" stroke-width="2" stroke="#c4c4c4" stroke-linecap="round"></line><line x1="203.48119419062763" x2="196.16356669848497" y1="-210.75381236298725" y2="-203.43618487084458" stroke-width="2" stroke="#c4c4c4" stroke-linecap="round"></line><line x1="459.48119419062766" x2="452.16356669848494" y1="-210.75381236298725" y2="-203.43618487084458" stroke-width="2" stroke="#c4c4c4" stroke-linecap="round"></line><line x1="715.4811941906277" x2="708.1635666984849" y1="-210.75381236298725" y2="-203.43618487084458" stroke-width="2" stroke="#c4c4c4" stroke-linecap="round"></line><line x1="203.48119419062763" x2="196.16356669848497" y1="45.246187637012746" y2="52.56381512915542" stroke-width="2" stroke="#c4c4c4" stroke-linecap="round"></line><line x1="459.48119419062766" x2="452.16356669848494" y1="45.246187637012746" y2="52.56381512915542" stroke-width="2" stroke="#c4c4c4" stroke-linecap="round"></line><line x1="715.4811941906277" x2="708.1635666984849" y1="45.246187637012746" y2="52.56381512915542" stroke-width="2" stroke="#c4c4c4" stroke-linecap="round"></line><line x1="133.30494444716223" x2="129.23677190843514" y1="238.71723119845464" y2="242.78540373718172" stroke-width="2" stroke="#c4c4c4" stroke-linecap="round"></line><line x1="133.30494444716223" x2="129.23677190843514" y1="-273.28276880154533" y2="-269.2145962628183" stroke-width="2" stroke="#c4c4c4" stroke-linecap="round"></line><line x1="389.30494444716226" x2="385.2367719084351" y1="-273.28276880154533" y2="-269.2145962628183" stroke-width="2" stroke="#c4c4c4" stroke-linecap="round"></line><line x1="645.3049444471623" x2="641.2367719084351" y1="-273.28276880154533" y2="-269.2145962628183" stroke-width="2" stroke="#c4c4c4" stroke-linecap="round"></line><line x1="133.30494444716223" x2="129.23677190843514" y1="-17.28276880154536" y2="-13.214596262818276" stroke-width="2" stroke="#c4c4c4" stroke-linecap="round"></line><line x1="389.30494444716226" x2="385.2367719084351" y1="-17.28276880154536" y2="-13.214596262818276" stroke-width="2" stroke="#c4c4c4" stroke-linecap="round"></line><line x1="645.3049444471623" x2="641.2367719084351" y1="-17.28276880154536" y2="-13.214596262818276" stroke-width="2" stroke="#c4c4c4" stroke-linecap="round"></line><line x1="133.30494444716223" x2="129.23677190843514" y1="238.71723119845464" y2="242.78540373718172" stroke-width="2" stroke="#c4c4c4" stroke-linecap="round"></line><line x1="389.30494444716226" x2="385.2367719084351" y1="238.71723119845464" y2="242.78540373718172" stroke-width="2" stroke="#c4c4c4" stroke-linecap="round"></line><line x1="645.3049444471623" x2="641.2367719084351" y1="238.71723119845464" y2="242.78540373718172" stroke-width="2" stroke="#c4c4c4" stroke-linecap="round"></line><line x1="184.99731007833304" x2="178.83481722930333" y1="236.8233531920647" y2="242.98584604109442" stroke-width="2" stroke="#c4c4c4" stroke-linecap="round"></line><line x1="184.99731007833304" x2="178.83481722930333" y1="-275.1766468079353" y2="-269.0141539589056" stroke-width="2" stroke="#c4c4c4" stroke-linecap="round"></line><line x1="440.99731007833304" x2="434.8348172293033" y1="-275.1766468079353" y2="-269.0141539589056" stroke-width="2" stroke="#c4c4c4" stroke-linecap="round"></line><line x1="696.997310078333" x2="690.8348172293033" y1="-275.1766468079353" y2="-269.0141539589056" stroke-width="2" stroke="#c4c4c4" stroke-linecap="round"></line><line x1="184.99731007833304" x2="178.83481722930333" y1="-19.1766468079353" y2="-13.014153958905581" stroke-width="2" stroke="#c4c4c4" stroke-linecap="round"></line><line x1="440.99731007833304" x2="434.8348172293033" y1="-19.1766468079353" y2="-13.014153958905581" stroke-width="2" stroke="#c4c4c4" stroke-linecap="round"></line><line x1="696.997310078333" x2="690.8348172293033" y1="-19.1766468079353" y2="-13.014153958905581" stroke-width="2" stroke="#c4c4c4" stroke-linecap="round"></line><line x1="184.99731007833304" x2="178.83481722930333" y1="236.8233531920647" y2="242.98584604109442" stroke-width="2" stroke="#c4c4c4" stroke-linecap="round"></line><line x1="440.99731007833304" x2="434.8348172293033" y1="236.8233531920647" y2="242.98584604109442" stroke-width="2" stroke="#c4c4c4" stroke-linecap="round"></line><line x1="696.997310078333" x2="690.8348172293033" y1="236.8233531920647" y2="242.98584604109442" stroke-width="2" stroke="#c4c4c4" stroke-linecap="round"></line><line x1="97.64378241707104" x2="92.87580256613538" y1="217.59193011235013" y2="222.3599099632858" stroke-width="2" stroke="#c4c4c4" stroke-linecap="round"></line><line x1="97.64378241707104" x2="92.87580256613538" y1="-294.40806988764984" y2="-289.64009003671424" stroke-width="2" stroke="#c4c4c4" stroke-linecap="round"></line><line x1="353.64378241707107" x2="348.87580256613535" y1="-294.40806988764984" y2="-289.64009003671424" stroke-width="2" stroke="#c4c4c4" stroke-linecap="round"></line><line x1="609.6437824170711" x2="604.8758025661353" y1="-294.40806988764984" y2="-289.64009003671424" stroke-width="2" stroke="#c4c4c4" stroke-linecap="round"></line><line x1="97.64378241707104" x2="92.87580256613538" y1="-38.40806988764987" y2="-33.64009003671421" stroke-width="2" stroke="#c4c4c4" stroke-linecap="round"></line><line x1="353.64378241707107" x2="348.87580256613535" y1="-38.40806988764987" y2="-33.64009003671421" stroke-width="2" stroke="#c4c4c4" stroke-linecap="round"></line><line x1="609.6437824170711" x2="604.8758025661353" y1="-38.40806988764987" y2="-33.64009003671421" stroke-width="2" stroke="#c4c4c4" stroke-linecap="round"></line><line x1="97.64378241707104" x2="92.87580256613538" y1="217.59193011235013" y2="222.3599099632858" stroke-width="2" stroke="#c4c4c4" stroke-linecap="round"></line><line x1="353.64378241707107" x2="348.87580256613535" y1="217.59193011235013" y2="222.3599099632858" stroke-width="2" stroke="#c4c4c4" stroke-linecap="round"></line><line x1="609.6437824170711" x2="604.8758025661353" y1="217.59193011235013" y2="222.3599099632858" stroke-width="2" stroke="#c4c4c4" stroke-linecap="round"></line><line x1="32.08237336668254" x2="26.72996146235015" y1="70.37606629478977" y2="75.72847819912216" stroke-width="2" stroke="#c4c4c4" stroke-linecap="round"></line><line x1="32.08237336668254" x2="26.72996146235015" y1="-441.6239337052102" y2="-436.27152180087785" stroke-width="2" stroke="#c4c4c4" stroke-linecap="round"></line><line x1="288.08237336668253" x2="282.72996146235016" y1="-441.6239337052102" y2="-436.27152180087785" stroke-width="2" stroke="#c4c4c4" stroke-linecap="round"></line><line x1="544.0823733666825" x2="538.7299614623502" y1="-441.6239337052102" y2="-436.27152180087785" stroke-width="2" stroke="#c4c4c4" stroke-linecap="round"></line><line x1="32.08237336668254" x2="26.72996146235015" y1="-185.62393370521022" y2="-180.27152180087785" stroke-width="2" stroke="#c4c4c4" stroke-linecap="round"></line><line x1="288.08237336668253" x2="282.72996146235016" y1="-185.62393370521022" y2="-180.27152180087785" stroke-width="2" stroke="#c4c4c4" stroke-linecap="round"></line><line x1="544.0823733666825" x2="538.7299614623502" y1="-185.62393370521022" y2="-180.27152180087785" stroke-width="2" stroke="#c4c4c4" stroke-linecap="round"></line><line x1="32.08237336668254" x2="26.72996146235015" y1="70.37606629478977" y2="75.72847819912216" stroke-width="2" stroke="#c4c4c4" stroke-linecap="round"></line><line x1="288.08237336668253" x2="282.72996146235016" y1="70.37606629478977" y2="75.72847819912216" stroke-width="2" stroke="#c4c4c4" stroke-linecap="round"></line><line x1="544.0823733666825" x2="538.7299614623502" y1="70.37606629478977" y2="75.72847819912216" stroke-width="2" stroke="#c4c4c4" stroke-linecap="round"></line><line x1="226.92685892399234" x2="222.35336411787736" y1="215.0309506284344" y2="219.60444543454938" stroke-width="2" stroke="#c4c4c4" stroke-linecap="round"></line><line x1="226.92685892399234" x2="222.35336411787736" y1="-296.9690493715656" y2="-292.39555456545065" stroke-width="2" stroke="#c4c4c4" stroke-linecap="round"></line><line x1="482.9268589239923" x2="478.3533641178774" y1="-296.9690493715656" y2="-292.39555456545065" stroke-width="2" stroke="#c4c4c4" stroke-linecap="round"></line><line x1="738.9268589239923" x2="734.3533641178774" y1="-296.9690493715656" y2="-292.39555456545065" stroke-width="2" stroke="#c4c4c4" stroke-linecap="round"></line><line x1="226.92685892399234" x2="222.35336411787736" y1="-40.9690493715656" y2="-36.395554565450624" stroke-width="2" stroke="#c4c4c4" stroke-linecap="round"></line><line x1="482.9268589239923" x2="478.3533641178774" y1="-40.9690493715656" y2="-36.395554565450624" stroke-width="2" stroke="#c4c4c4" stroke-linecap="round"></line><line x1="738.9268589239923" x2="734.3533641178774" y1="-40.9690493715656" y2="-36.395554565450624" stroke-width="2" stroke="#c4c4c4" stroke-linecap="round"></line><line x1="226.92685892399234" x2="222.35336411787736" y1="215.0309506284344" y2="219.60444543454938" stroke-width="2" stroke="#c4c4c4" stroke-linecap="round"></line><line x1="482.9268589239923" x2="478.3533641178774" y1="215.0309506284344" y2="219.60444543454938" stroke-width="2" stroke="#c4c4c4" stroke-linecap="round"></line><line x1="738.9268589239923" x2="734.3533641178774" y1="215.0309506284344" y2="219.60444543454938" stroke-width="2" stroke="#c4c4c4" stroke-linecap="round"></line><line x1="82.6051961845901" x2="78.85387047035512" y1="3.8505982492135447" y2="7.60192396344853" stroke-width="2" stroke="#c4c4c4" stroke-linecap="round"></line><line x1="82.6051961845901" x2="78.85387047035512" y1="-508.14940175078647" y2="-504.39807603655146" stroke-width="2" stroke="#c4c4c4" stroke-linecap="round"></line><line x1="338.6051961845901" x2="334.8538704703551" y1="-508.14940175078647" y2="-504.39807603655146" stroke-width="2" stroke="#c4c4c4" stroke-linecap="round"></line><line x1="594.6051961845901" x2="590.8538704703551" y1="-508.14940175078647" y2="-504.39807603655146" stroke-width="2" stroke="#c4c4c4" stroke-linecap="round"></line><line x1="82.6051961845901" x2="78.85387047035512" y1="-252.14940175078647" y2="-248.39807603655146" stroke-width="2" stroke="#c4c4c4" stroke-linecap="round"></line><line x1="338.6051961845901" x2="334.8538704703551" y1="-252.14940175078647" y2="-248.39807603655146" stroke-width="2" stroke="#c4c4c4" stroke-linecap="round"></line><line x1="594.6051961845901" x2="590.8538704703551" y1="-252.14940175078647" y2="-248.39807603655146" stroke-width="2" stroke="#c4c4c4" stroke-linecap="round"></line><line x1="82.6051961845901" x2="78.85387047035512" y1="3.8505982492135447" y2="7.60192396344853" stroke-width="2" stroke="#c4c4c4" stroke-linecap="round"></line><line x1="338.6051961845901" x2="334.8538704703551" y1="3.8505982492135447" y2="7.60192396344853" stroke-width="2" stroke="#c4c4c4" stroke-linecap="round"></line><line x1="594.6051961845901" x2="590.8538704703551" y1="3.8505982492135447" y2="7.60192396344853" stroke-width="2" stroke="#c4c4c4" stroke-linecap="round"></line><line x1="88.51462402951812" x2="82.275005654991" y1="2.8891600623362725" y2="9.128778436863385" stroke-width="2" stroke="#c4c4c4" stroke-linecap="round"></line><line x1="88.51462402951812" x2="82.275005654991" y1="-509.11083993766374" y2="-502.8712215631366" stroke-width="2" stroke="#c4c4c4" stroke-linecap="round"></line><line x1="344.51462402951813" x2="338.275005654991" y1="-509.11083993766374" y2="-502.8712215631366" stroke-width="2" stroke="#c4c4c4" stroke-linecap="round"></line><line x1="600.5146240295181" x2="594.275005654991" y1="-509.11083993766374" y2="-502.8712215631366" stroke-width="2" stroke="#c4c4c4" stroke-linecap="round"></line><line x1="88.51462402951812" x2="82.275005654991" y1="-253.11083993766374" y2="-246.8712215631366" stroke-width="2" stroke="#c4c4c4" stroke-linecap="round"></line><line x1="344.51462402951813" x2="338.275005654991" y1="-253.11083993766374" y2="-246.8712215631366" stroke-width="2" stroke="#c4c4c4" stroke-linecap="round"></line><line x1="600.5146240295181" x2="594.275005654991" y1="-253.11083993766374" y2="-246.8712215631366" stroke-width="2" stroke="#c4c4c4" stroke-linecap="round"></line><line x1="88.51462402951812" x2="82.275005654991" y1="2.8891600623362725" y2="9.128778436863385" stroke-width="2" stroke="#c4c4c4" stroke-linecap="round"></line><line x1="344.51462402951813" x2="338.275005654991" y1="2.8891600623362725" y2="9.128778436863385" stroke-width="2" stroke="#c4c4c4" stroke-linecap="round"></line><line x1="600.5146240295181" x2="594.275005654991" y1="2.8891600623362725" y2="9.128778436863385" stroke-width="2" stroke="#c4c4c4" stroke-linecap="round"></line>
  <animateTransform attributeName="transform" type="translate" values="0 0;-256 256" keyTimes="0;1" repeatCount="indefinite" dur="0.7707843137254901s"></animateTransform>
</g><g>
  <line x1="227.61628867448078" x2="221.9952517075852" y1="115.60931337101934" y2="121.23035033791493" stroke-width="2" stroke="#c4c4c4" stroke-linecap="round"></line><line x1="227.61628867448078" x2="221.9952517075852" y1="-396.3906866289807" y2="-390.76964966208504" stroke-width="2" stroke="#c4c4c4" stroke-linecap="round"></line><line x1="483.61628867448076" x2="477.9952517075852" y1="-396.3906866289807" y2="-390.76964966208504" stroke-width="2" stroke="#c4c4c4" stroke-linecap="round"></line><line x1="739.6162886744808" x2="733.9952517075852" y1="-396.3906866289807" y2="-390.76964966208504" stroke-width="2" stroke="#c4c4c4" stroke-linecap="round"></line><line x1="227.61628867448078" x2="221.9952517075852" y1="-140.39068662898066" y2="-134.76964966208507" stroke-width="2" stroke="#c4c4c4" stroke-linecap="round"></line><line x1="483.61628867448076" x2="477.9952517075852" y1="-140.39068662898066" y2="-134.76964966208507" stroke-width="2" stroke="#c4c4c4" stroke-linecap="round"></line><line x1="739.6162886744808" x2="733.9952517075852" y1="-140.39068662898066" y2="-134.76964966208507" stroke-width="2" stroke="#c4c4c4" stroke-linecap="round"></line><line x1="227.61628867448078" x2="221.9952517075852" y1="115.60931337101934" y2="121.23035033791493" stroke-width="2" stroke="#c4c4c4" stroke-linecap="round"></line><line x1="483.61628867448076" x2="477.9952517075852" y1="115.60931337101934" y2="121.23035033791493" stroke-width="2" stroke="#c4c4c4" stroke-linecap="round"></line><line x1="739.6162886744808" x2="733.9952517075852" y1="115.60931337101934" y2="121.23035033791493" stroke-width="2" stroke="#c4c4c4" stroke-linecap="round"></line><line x1="51.23928275544909" x2="48.31705983862316" y1="157.08626804379554" y2="160.0084909606215" stroke-width="2" stroke="#c4c4c4" stroke-linecap="round"></line><line x1="51.23928275544909" x2="48.31705983862316" y1="-354.91373195620446" y2="-351.9915090393785" stroke-width="2" stroke="#c4c4c4" stroke-linecap="round"></line><line x1="307.2392827554491" x2="304.31705983862315" y1="-354.91373195620446" y2="-351.9915090393785" stroke-width="2" stroke="#c4c4c4" stroke-linecap="round"></line><line x1="563.239282755449" x2="560.3170598386232" y1="-354.91373195620446" y2="-351.9915090393785" stroke-width="2" stroke="#c4c4c4" stroke-linecap="round"></line><line x1="51.23928275544909" x2="48.31705983862316" y1="-98.91373195620446" y2="-95.99150903937851" stroke-width="2" stroke="#c4c4c4" stroke-linecap="round"></line><line x1="307.2392827554491" x2="304.31705983862315" y1="-98.91373195620446" y2="-95.99150903937851" stroke-width="2" stroke="#c4c4c4" stroke-linecap="round"></line><line x1="563.239282755449" x2="560.3170598386232" y1="-98.91373195620446" y2="-95.99150903937851" stroke-width="2" stroke="#c4c4c4" stroke-linecap="round"></line><line x1="51.23928275544909" x2="48.31705983862316" y1="157.08626804379554" y2="160.0084909606215" stroke-width="2" stroke="#c4c4c4" stroke-linecap="round"></line><line x1="307.2392827554491" x2="304.31705983862315" y1="157.08626804379554" y2="160.0084909606215" stroke-width="2" stroke="#c4c4c4" stroke-linecap="round"></line><line x1="563.239282755449" x2="560.3170598386232" y1="157.08626804379554" y2="160.0084909606215" stroke-width="2" stroke="#c4c4c4" stroke-linecap="round"></line><line x1="225.12233367170137" x2="221.66978847311606" y1="121.0079984684964" y2="124.46054366708171" stroke-width="2" stroke="#c4c4c4" stroke-linecap="round"></line><line x1="225.12233367170137" x2="221.66978847311606" y1="-390.9920015315036" y2="-387.5394563329183" stroke-width="2" stroke="#c4c4c4" stroke-linecap="round"></line><line x1="481.12233367170137" x2="477.66978847311606" y1="-390.9920015315036" y2="-387.5394563329183" stroke-width="2" stroke="#c4c4c4" stroke-linecap="round"></line><line x1="737.1223336717014" x2="733.6697884731161" y1="-390.9920015315036" y2="-387.5394563329183" stroke-width="2" stroke="#c4c4c4" stroke-linecap="round"></line><line x1="225.12233367170137" x2="221.66978847311606" y1="-134.9920015315036" y2="-131.5394563329183" stroke-width="2" stroke="#c4c4c4" stroke-linecap="round"></line><line x1="481.12233367170137" x2="477.66978847311606" y1="-134.9920015315036" y2="-131.5394563329183" stroke-width="2" stroke="#c4c4c4" stroke-linecap="round"></line><line x1="737.1223336717014" x2="733.6697884731161" y1="-134.9920015315036" y2="-131.5394563329183" stroke-width="2" stroke="#c4c4c4" stroke-linecap="round"></line><line x1="225.12233367170137" x2="221.66978847311606" y1="121.0079984684964" y2="124.46054366708171" stroke-width="2" stroke="#c4c4c4" stroke-linecap="round"></line><line x1="481.12233367170137" x2="477.66978847311606" y1="121.0079984684964" y2="124.46054366708171" stroke-width="2" stroke="#c4c4c4" stroke-linecap="round"></line><line x1="737.1223336717014" x2="733.6697884731161" y1="121.0079984684964" y2="124.46054366708171" stroke-width="2" stroke="#c4c4c4" stroke-linecap="round"></line><line x1="138.55796440545626" x2="133.543619473559" y1="94.97007404742212" y2="99.98441897931937" stroke-width="2" stroke="#c4c4c4" stroke-linecap="round"></line><line x1="138.55796440545626" x2="133.543619473559" y1="-417.02992595257786" y2="-412.01558102068066" stroke-width="2" stroke="#c4c4c4" stroke-linecap="round"></line><line x1="394.55796440545623" x2="389.54361947355903" y1="-417.02992595257786" y2="-412.01558102068066" stroke-width="2" stroke="#c4c4c4" stroke-linecap="round"></line><line x1="650.5579644054562" x2="645.543619473559" y1="-417.02992595257786" y2="-412.01558102068066" stroke-width="2" stroke="#c4c4c4" stroke-linecap="round"></line><line x1="138.55796440545626" x2="133.543619473559" y1="-161.02992595257788" y2="-156.01558102068063" stroke-width="2" stroke="#c4c4c4" stroke-linecap="round"></line><line x1="394.55796440545623" x2="389.54361947355903" y1="-161.02992595257788" y2="-156.01558102068063" stroke-width="2" stroke="#c4c4c4" stroke-linecap="round"></line><line x1="650.5579644054562" x2="645.543619473559" y1="-161.02992595257788" y2="-156.01558102068063" stroke-width="2" stroke="#c4c4c4" stroke-linecap="round"></line><line x1="138.55796440545626" x2="133.543619473559" y1="94.97007404742212" y2="99.98441897931937" stroke-width="2" stroke="#c4c4c4" stroke-linecap="round"></line><line x1="394.55796440545623" x2="389.54361947355903" y1="94.97007404742212" y2="99.98441897931937" stroke-width="2" stroke="#c4c4c4" stroke-linecap="round"></line><line x1="650.5579644054562" x2="645.543619473559" y1="94.97007404742212" y2="99.98441897931937" stroke-width="2" stroke="#c4c4c4" stroke-linecap="round"></line><line x1="132.7274812443798" x2="128.91536431289236" y1="97.64849695734524" y2="101.4606138888327" stroke-width="2" stroke="#c4c4c4" stroke-linecap="round"></line><line x1="132.7274812443798" x2="128.91536431289236" y1="-414.35150304265477" y2="-410.5393861111673" stroke-width="2" stroke="#c4c4c4" stroke-linecap="round"></line><line x1="388.72748124437976" x2="384.9153643128924" y1="-414.35150304265477" y2="-410.5393861111673" stroke-width="2" stroke="#c4c4c4" stroke-linecap="round"></line><line x1="644.7274812443798" x2="640.9153643128924" y1="-414.35150304265477" y2="-410.5393861111673" stroke-width="2" stroke="#c4c4c4" stroke-linecap="round"></line><line x1="132.7274812443798" x2="128.91536431289236" y1="-158.35150304265477" y2="-154.5393861111673" stroke-width="2" stroke="#c4c4c4" stroke-linecap="round"></line><line x1="388.72748124437976" x2="384.9153643128924" y1="-158.35150304265477" y2="-154.5393861111673" stroke-width="2" stroke="#c4c4c4" stroke-linecap="round"></line><line x1="644.7274812443798" x2="640.9153643128924" y1="-158.35150304265477" y2="-154.5393861111673" stroke-width="2" stroke="#c4c4c4" stroke-linecap="round"></line><line x1="132.7274812443798" x2="128.91536431289236" y1="97.64849695734524" y2="101.4606138888327" stroke-width="2" stroke="#c4c4c4" stroke-linecap="round"></line><line x1="388.72748124437976" x2="384.9153643128924" y1="97.64849695734524" y2="101.4606138888327" stroke-width="2" stroke="#c4c4c4" stroke-linecap="round"></line><line x1="644.7274812443798" x2="640.9153643128924" y1="97.64849695734524" y2="101.4606138888327" stroke-width="2" stroke="#c4c4c4" stroke-linecap="round"></line><line x1="184.7391273552619" x2="180.9626415924209" y1="253.5046101955149" y2="257.28109595835593" stroke-width="2" stroke="#c4c4c4" stroke-linecap="round"></line><line x1="184.7391273552619" x2="180.9626415924209" y1="-258.49538980448506" y2="-254.71890404164407" stroke-width="2" stroke="#c4c4c4" stroke-linecap="round"></line><line x1="440.73912735526187" x2="436.96264159242094" y1="-258.49538980448506" y2="-254.71890404164407" stroke-width="2" stroke="#c4c4c4" stroke-linecap="round"></line><line x1="696.7391273552619" x2="692.9626415924209" y1="-258.49538980448506" y2="-254.71890404164407" stroke-width="2" stroke="#c4c4c4" stroke-linecap="round"></line><line x1="184.7391273552619" x2="180.9626415924209" y1="-2.495389804485086" y2="1.2810959583559338" stroke-width="2" stroke="#c4c4c4" stroke-linecap="round"></line><line x1="440.73912735526187" x2="436.96264159242094" y1="-2.495389804485086" y2="1.2810959583559338" stroke-width="2" stroke="#c4c4c4" stroke-linecap="round"></line><line x1="696.7391273552619" x2="692.9626415924209" y1="-2.495389804485086" y2="1.2810959583559338" stroke-width="2" stroke="#c4c4c4" stroke-linecap="round"></line><line x1="184.7391273552619" x2="180.9626415924209" y1="253.5046101955149" y2="257.28109595835593" stroke-width="2" stroke="#c4c4c4" stroke-linecap="round"></line><line x1="440.73912735526187" x2="436.96264159242094" y1="253.5046101955149" y2="257.28109595835593" stroke-width="2" stroke="#c4c4c4" stroke-linecap="round"></line><line x1="696.7391273552619" x2="692.9626415924209" y1="253.5046101955149" y2="257.28109595835593" stroke-width="2" stroke="#c4c4c4" stroke-linecap="round"></line><line x1="70.41162585724803" x2="67.18158441783001" y1="45.577007267118255" y2="48.807048706536285" stroke-width="2" stroke="#c4c4c4" stroke-linecap="round"></line><line x1="70.41162585724803" x2="67.18158441783001" y1="-466.42299273288177" y2="-463.1929512934637" stroke-width="2" stroke="#c4c4c4" stroke-linecap="round"></line><line x1="326.41162585724805" x2="323.18158441783" y1="-466.42299273288177" y2="-463.1929512934637" stroke-width="2" stroke="#c4c4c4" stroke-linecap="round"></line><line x1="582.411625857248" x2="579.18158441783" y1="-466.42299273288177" y2="-463.1929512934637" stroke-width="2" stroke="#c4c4c4" stroke-linecap="round"></line><line x1="70.41162585724803" x2="67.18158441783001" y1="-210.42299273288174" y2="-207.19295129346372" stroke-width="2" stroke="#c4c4c4" stroke-linecap="round"></line><line x1="326.41162585724805" x2="323.18158441783" y1="-210.42299273288174" y2="-207.19295129346372" stroke-width="2" stroke="#c4c4c4" stroke-linecap="round"></line><line x1="582.411625857248" x2="579.18158441783" y1="-210.42299273288174" y2="-207.19295129346372" stroke-width="2" stroke="#c4c4c4" stroke-linecap="round"></line><line x1="70.41162585724803" x2="67.18158441783001" y1="45.577007267118255" y2="48.807048706536285" stroke-width="2" stroke="#c4c4c4" stroke-linecap="round"></line><line x1="326.41162585724805" x2="323.18158441783" y1="45.577007267118255" y2="48.807048706536285" stroke-width="2" stroke="#c4c4c4" stroke-linecap="round"></line><line x1="582.411625857248" x2="579.18158441783" y1="45.577007267118255" y2="48.807048706536285" stroke-width="2" stroke="#c4c4c4" stroke-linecap="round"></line><line x1="85.4596730281274" x2="82.02021078147827" y1="1.59909907156093" y2="5.038561318210055" stroke-width="2" stroke="#c4c4c4" stroke-linecap="round"></line><line x1="85.4596730281274" x2="82.02021078147827" y1="-510.40090092843906" y2="-506.96143868178996" stroke-width="2" stroke="#c4c4c4" stroke-linecap="round"></line><line x1="341.4596730281274" x2="338.0202107814783" y1="-510.40090092843906" y2="-506.96143868178996" stroke-width="2" stroke="#c4c4c4" stroke-linecap="round"></line><line x1="597.4596730281274" x2="594.0202107814782" y1="-510.40090092843906" y2="-506.96143868178996" stroke-width="2" stroke="#c4c4c4" stroke-linecap="round"></line><line x1="85.4596730281274" x2="82.02021078147827" y1="-254.40090092843906" y2="-250.96143868178996" stroke-width="2" stroke="#c4c4c4" stroke-linecap="round"></line><line x1="341.4596730281274" x2="338.0202107814783" y1="-254.40090092843906" y2="-250.96143868178996" stroke-width="2" stroke="#c4c4c4" stroke-linecap="round"></line><line x1="597.4596730281274" x2="594.0202107814782" y1="-254.40090092843906" y2="-250.96143868178996" stroke-width="2" stroke="#c4c4c4" stroke-linecap="round"></line><line x1="85.4596730281274" x2="82.02021078147827" y1="1.59909907156093" y2="5.038561318210055" stroke-width="2" stroke="#c4c4c4" stroke-linecap="round"></line><line x1="341.4596730281274" x2="338.0202107814783" y1="1.59909907156093" y2="5.038561318210055" stroke-width="2" stroke="#c4c4c4" stroke-linecap="round"></line><line x1="597.4596730281274" x2="594.0202107814782" y1="1.59909907156093" y2="5.038561318210055" stroke-width="2" stroke="#c4c4c4" stroke-linecap="round"></line><line x1="111.13346121087687" x2="103.31782939217322" y1="161.2443817185976" y2="169.06001353730124" stroke-width="2" stroke="#c4c4c4" stroke-linecap="round"></line><line x1="111.13346121087687" x2="103.31782939217322" y1="-350.7556182814024" y2="-342.93998646269876" stroke-width="2" stroke="#c4c4c4" stroke-linecap="round"></line><line x1="367.1334612108769" x2="359.3178293921732" y1="-350.7556182814024" y2="-342.93998646269876" stroke-width="2" stroke="#c4c4c4" stroke-linecap="round"></line><line x1="623.1334612108769" x2="615.3178293921733" y1="-350.7556182814024" y2="-342.93998646269876" stroke-width="2" stroke="#c4c4c4" stroke-linecap="round"></line><line x1="111.13346121087687" x2="103.31782939217322" y1="-94.7556182814024" y2="-86.93998646269876" stroke-width="2" stroke="#c4c4c4" stroke-linecap="round"></line><line x1="367.1334612108769" x2="359.3178293921732" y1="-94.7556182814024" y2="-86.93998646269876" stroke-width="2" stroke="#c4c4c4" stroke-linecap="round"></line><line x1="623.1334612108769" x2="615.3178293921733" y1="-94.7556182814024" y2="-86.93998646269876" stroke-width="2" stroke="#c4c4c4" stroke-linecap="round"></line><line x1="111.13346121087687" x2="103.31782939217322" y1="161.2443817185976" y2="169.06001353730124" stroke-width="2" stroke="#c4c4c4" stroke-linecap="round"></line><line x1="367.1334612108769" x2="359.3178293921732" y1="161.2443817185976" y2="169.06001353730124" stroke-width="2" stroke="#c4c4c4" stroke-linecap="round"></line><line x1="623.1334612108769" x2="615.3178293921733" y1="161.2443817185976" y2="169.06001353730124" stroke-width="2" stroke="#c4c4c4" stroke-linecap="round"></line><line x1="113.3368031503818" x2="110.08470068133477" y1="136.15656670036003" y2="139.40866916940706" stroke-width="2" stroke="#c4c4c4" stroke-linecap="round"></line><line x1="113.3368031503818" x2="110.08470068133477" y1="-375.84343329963997" y2="-372.59133083059294" stroke-width="2" stroke="#c4c4c4" stroke-linecap="round"></line><line x1="369.3368031503818" x2="366.08470068133477" y1="-375.84343329963997" y2="-372.59133083059294" stroke-width="2" stroke="#c4c4c4" stroke-linecap="round"></line><line x1="625.3368031503818" x2="622.0847006813348" y1="-375.84343329963997" y2="-372.59133083059294" stroke-width="2" stroke="#c4c4c4" stroke-linecap="round"></line><line x1="113.3368031503818" x2="110.08470068133477" y1="-119.84343329963997" y2="-116.59133083059294" stroke-width="2" stroke="#c4c4c4" stroke-linecap="round"></line><line x1="369.3368031503818" x2="366.08470068133477" y1="-119.84343329963997" y2="-116.59133083059294" stroke-width="2" stroke="#c4c4c4" stroke-linecap="round"></line><line x1="625.3368031503818" x2="622.0847006813348" y1="-119.84343329963997" y2="-116.59133083059294" stroke-width="2" stroke="#c4c4c4" stroke-linecap="round"></line><line x1="113.3368031503818" x2="110.08470068133477" y1="136.15656670036003" y2="139.40866916940706" stroke-width="2" stroke="#c4c4c4" stroke-linecap="round"></line><line x1="369.3368031503818" x2="366.08470068133477" y1="136.15656670036003" y2="139.40866916940706" stroke-width="2" stroke="#c4c4c4" stroke-linecap="round"></line><line x1="625.3368031503818" x2="622.0847006813348" y1="136.15656670036003" y2="139.40866916940706" stroke-width="2" stroke="#c4c4c4" stroke-linecap="round"></line>
  <animateTransform attributeName="transform" type="translate" values="0 0;-256 256" keyTimes="0;1" repeatCount="indefinite" dur="0.6603921568627451s"></animateTransform>
</g><g>
  <line x1="224.90507595297922" x2="217.42038408708268" y1="31.85509916117862" y2="39.33979102707517" stroke-width="2" stroke="#c4c4c4" stroke-linecap="round"></line><line x1="224.90507595297922" x2="217.42038408708268" y1="-480.1449008388214" y2="-472.6602089729248" stroke-width="2" stroke="#c4c4c4" stroke-linecap="round"></line><line x1="480.90507595297925" x2="473.42038408708265" y1="-480.1449008388214" y2="-472.6602089729248" stroke-width="2" stroke="#c4c4c4" stroke-linecap="round"></line><line x1="736.9050759529792" x2="729.4203840870827" y1="-480.1449008388214" y2="-472.6602089729248" stroke-width="2" stroke="#c4c4c4" stroke-linecap="round"></line><line x1="224.90507595297922" x2="217.42038408708268" y1="-224.14490083882137" y2="-216.66020897292483" stroke-width="2" stroke="#c4c4c4" stroke-linecap="round"></line><line x1="480.90507595297925" x2="473.42038408708265" y1="-224.14490083882137" y2="-216.66020897292483" stroke-width="2" stroke="#c4c4c4" stroke-linecap="round"></line><line x1="736.9050759529792" x2="729.4203840870827" y1="-224.14490083882137" y2="-216.66020897292483" stroke-width="2" stroke="#c4c4c4" stroke-linecap="round"></line><line x1="224.90507595297922" x2="217.42038408708268" y1="31.85509916117862" y2="39.33979102707517" stroke-width="2" stroke="#c4c4c4" stroke-linecap="round"></line><line x1="480.90507595297925" x2="473.42038408708265" y1="31.85509916117862" y2="39.33979102707517" stroke-width="2" stroke="#c4c4c4" stroke-linecap="round"></line><line x1="736.9050759529792" x2="729.4203840870827" y1="31.85509916117862" y2="39.33979102707517" stroke-width="2" stroke="#c4c4c4" stroke-linecap="round"></line><line x1="76.12445068079583" x2="68.71879188704779" y1="33.995032690486916" y2="41.40069148423495" stroke-width="2" stroke="#c4c4c4" stroke-linecap="round"></line><line x1="76.12445068079583" x2="68.71879188704779" y1="-478.00496730951306" y2="-470.5993085157651" stroke-width="2" stroke="#c4c4c4" stroke-linecap="round"></line><line x1="332.1244506807958" x2="324.7187918870478" y1="-478.00496730951306" y2="-470.5993085157651" stroke-width="2" stroke="#c4c4c4" stroke-linecap="round"></line><line x1="588.1244506807958" x2="580.7187918870478" y1="-478.00496730951306" y2="-470.5993085157651" stroke-width="2" stroke="#c4c4c4" stroke-linecap="round"></line><line x1="76.12445068079583" x2="68.71879188704779" y1="-222.0049673095131" y2="-214.59930851576505" stroke-width="2" stroke="#c4c4c4" stroke-linecap="round"></line><line x1="332.1244506807958" x2="324.7187918870478" y1="-222.0049673095131" y2="-214.59930851576505" stroke-width="2" stroke="#c4c4c4" stroke-linecap="round"></line><line x1="588.1244506807958" x2="580.7187918870478" y1="-222.0049673095131" y2="-214.59930851576505" stroke-width="2" stroke="#c4c4c4" stroke-linecap="round"></line><line x1="76.12445068079583" x2="68.71879188704779" y1="33.995032690486916" y2="41.40069148423495" stroke-width="2" stroke="#c4c4c4" stroke-linecap="round"></line><line x1="332.1244506807958" x2="324.7187918870478" y1="33.995032690486916" y2="41.40069148423495" stroke-width="2" stroke="#c4c4c4" stroke-linecap="round"></line><line x1="588.1244506807958" x2="580.7187918870478" y1="33.995032690486916" y2="41.40069148423495" stroke-width="2" stroke="#c4c4c4" stroke-linecap="round"></line><line x1="55.94436576725436" x2="52.00789798128833" y1="54.41559701428887" y2="58.3520648002549" stroke-width="2" stroke="#c4c4c4" stroke-linecap="round"></line><line x1="55.94436576725436" x2="52.00789798128833" y1="-457.5844029857111" y2="-453.6479351997451" stroke-width="2" stroke="#c4c4c4" stroke-linecap="round"></line><line x1="311.94436576725434" x2="308.00789798128835" y1="-457.5844029857111" y2="-453.6479351997451" stroke-width="2" stroke="#c4c4c4" stroke-linecap="round"></line><line x1="567.9443657672543" x2="564.0078979812884" y1="-457.5844029857111" y2="-453.6479351997451" stroke-width="2" stroke="#c4c4c4" stroke-linecap="round"></line><line x1="55.94436576725436" x2="52.00789798128833" y1="-201.58440298571114" y2="-197.6479351997451" stroke-width="2" stroke="#c4c4c4" stroke-linecap="round"></line><line x1="311.94436576725434" x2="308.00789798128835" y1="-201.58440298571114" y2="-197.6479351997451" stroke-width="2" stroke="#c4c4c4" stroke-linecap="round"></line><line x1="567.9443657672543" x2="564.0078979812884" y1="-201.58440298571114" y2="-197.6479351997451" stroke-width="2" stroke="#c4c4c4" stroke-linecap="round"></line><line x1="55.94436576725436" x2="52.00789798128833" y1="54.41559701428887" y2="58.3520648002549" stroke-width="2" stroke="#c4c4c4" stroke-linecap="round"></line><line x1="311.94436576725434" x2="308.00789798128835" y1="54.41559701428887" y2="58.3520648002549" stroke-width="2" stroke="#c4c4c4" stroke-linecap="round"></line><line x1="567.9443657672543" x2="564.0078979812884" y1="54.41559701428887" y2="58.3520648002549" stroke-width="2" stroke="#c4c4c4" stroke-linecap="round"></line><line x1="130.76396214429928" x2="125.93611534766035" y1="63.801797110615325" y2="68.62964390725426" stroke-width="2" stroke="#c4c4c4" stroke-linecap="round"></line><line x1="130.76396214429928" x2="125.93611534766035" y1="-448.1982028893847" y2="-443.37035609274574" stroke-width="2" stroke="#c4c4c4" stroke-linecap="round"></line><line x1="386.7639621442993" x2="381.93611534766035" y1="-448.1982028893847" y2="-443.37035609274574" stroke-width="2" stroke="#c4c4c4" stroke-linecap="round"></line><line x1="642.7639621442993" x2="637.9361153476603" y1="-448.1982028893847" y2="-443.37035609274574" stroke-width="2" stroke="#c4c4c4" stroke-linecap="round"></line><line x1="130.76396214429928" x2="125.93611534766035" y1="-192.19820288938467" y2="-187.37035609274574" stroke-width="2" stroke="#c4c4c4" stroke-linecap="round"></line><line x1="386.7639621442993" x2="381.93611534766035" y1="-192.19820288938467" y2="-187.37035609274574" stroke-width="2" stroke="#c4c4c4" stroke-linecap="round"></line><line x1="642.7639621442993" x2="637.9361153476603" y1="-192.19820288938467" y2="-187.37035609274574" stroke-width="2" stroke="#c4c4c4" stroke-linecap="round"></line><line x1="130.76396214429928" x2="125.93611534766035" y1="63.801797110615325" y2="68.62964390725426" stroke-width="2" stroke="#c4c4c4" stroke-linecap="round"></line><line x1="386.7639621442993" x2="381.93611534766035" y1="63.801797110615325" y2="68.62964390725426" stroke-width="2" stroke="#c4c4c4" stroke-linecap="round"></line><line x1="642.7639621442993" x2="637.9361153476603" y1="63.801797110615325" y2="68.62964390725426" stroke-width="2" stroke="#c4c4c4" stroke-linecap="round"></line><line x1="84.49553669945907" x2="78.97237622737704" y1="116.20795381182849" y2="121.73111428391051" stroke-width="2" stroke="#c4c4c4" stroke-linecap="round"></line><line x1="84.49553669945907" x2="78.97237622737704" y1="-395.7920461881715" y2="-390.26888571608947" stroke-width="2" stroke="#c4c4c4" stroke-linecap="round"></line><line x1="340.4955366994591" x2="334.972376227377" y1="-395.7920461881715" y2="-390.26888571608947" stroke-width="2" stroke="#c4c4c4" stroke-linecap="round"></line><line x1="596.4955366994591" x2="590.972376227377" y1="-395.7920461881715" y2="-390.26888571608947" stroke-width="2" stroke="#c4c4c4" stroke-linecap="round"></line><line x1="84.49553669945907" x2="78.97237622737704" y1="-139.79204618817153" y2="-134.26888571608947" stroke-width="2" stroke="#c4c4c4" stroke-linecap="round"></line><line x1="340.4955366994591" x2="334.972376227377" y1="-139.79204618817153" y2="-134.26888571608947" stroke-width="2" stroke="#c4c4c4" stroke-linecap="round"></line><line x1="596.4955366994591" x2="590.972376227377" y1="-139.79204618817153" y2="-134.26888571608947" stroke-width="2" stroke="#c4c4c4" stroke-linecap="round"></line><line x1="84.49553669945907" x2="78.97237622737704" y1="116.20795381182849" y2="121.73111428391051" stroke-width="2" stroke="#c4c4c4" stroke-linecap="round"></line><line x1="340.4955366994591" x2="334.972376227377" y1="116.20795381182849" y2="121.73111428391051" stroke-width="2" stroke="#c4c4c4" stroke-linecap="round"></line><line x1="596.4955366994591" x2="590.972376227377" y1="116.20795381182849" y2="121.73111428391051" stroke-width="2" stroke="#c4c4c4" stroke-linecap="round"></line><line x1="231.81747048943473" x2="225.85896819118423" y1="238.61180539362678" y2="244.57030769187728" stroke-width="2" stroke="#c4c4c4" stroke-linecap="round"></line><line x1="231.81747048943473" x2="225.85896819118423" y1="-273.3881946063732" y2="-267.42969230812275" stroke-width="2" stroke="#c4c4c4" stroke-linecap="round"></line><line x1="487.81747048943475" x2="481.8589681911842" y1="-273.3881946063732" y2="-267.42969230812275" stroke-width="2" stroke="#c4c4c4" stroke-linecap="round"></line><line x1="743.8174704894348" x2="737.8589681911842" y1="-273.3881946063732" y2="-267.42969230812275" stroke-width="2" stroke="#c4c4c4" stroke-linecap="round"></line><line x1="231.81747048943473" x2="225.85896819118423" y1="-17.38819460637322" y2="-11.429692308122725" stroke-width="2" stroke="#c4c4c4" stroke-linecap="round"></line><line x1="487.81747048943475" x2="481.8589681911842" y1="-17.38819460637322" y2="-11.429692308122725" stroke-width="2" stroke="#c4c4c4" stroke-linecap="round"></line><line x1="743.8174704894348" x2="737.8589681911842" y1="-17.38819460637322" y2="-11.429692308122725" stroke-width="2" stroke="#c4c4c4" stroke-linecap="round"></line><line x1="231.81747048943473" x2="225.85896819118423" y1="238.61180539362678" y2="244.57030769187728" stroke-width="2" stroke="#c4c4c4" stroke-linecap="round"></line><line x1="487.81747048943475" x2="481.8589681911842" y1="238.61180539362678" y2="244.57030769187728" stroke-width="2" stroke="#c4c4c4" stroke-linecap="round"></line><line x1="743.8174704894348" x2="737.8589681911842" y1="238.61180539362678" y2="244.57030769187728" stroke-width="2" stroke="#c4c4c4" stroke-linecap="round"></line><line x1="201.18822447750068" x2="196.84444400622004" y1="83.40232252887171" y2="87.74610300015235" stroke-width="2" stroke="#c4c4c4" stroke-linecap="round"></line><line x1="201.18822447750068" x2="196.84444400622004" y1="-428.5976774711283" y2="-424.25389699984765" stroke-width="2" stroke="#c4c4c4" stroke-linecap="round"></line><line x1="457.1882244775007" x2="452.84444400622004" y1="-428.5976774711283" y2="-424.25389699984765" stroke-width="2" stroke="#c4c4c4" stroke-linecap="round"></line><line x1="713.1882244775006" x2="708.8444440062201" y1="-428.5976774711283" y2="-424.25389699984765" stroke-width="2" stroke="#c4c4c4" stroke-linecap="round"></line><line x1="201.18822447750068" x2="196.84444400622004" y1="-172.5976774711283" y2="-168.25389699984765" stroke-width="2" stroke="#c4c4c4" stroke-linecap="round"></line><line x1="457.1882244775007" x2="452.84444400622004" y1="-172.5976774711283" y2="-168.25389699984765" stroke-width="2" stroke="gray" stroke-linecap="round"></line><line x1="713.1882244775006" x2="708.8444440062201" y1="-172.5976774711283" y2="-168.25389699984765" stroke-width="2" stroke="gray" stroke-linecap="round"></line><line x1="201.18822447750068" x2="196.84444400622004" y1="83.40232252887171" y2="87.74610300015235" stroke-width="2" stroke="gray" stroke-linecap="round"></line><line x1="457.1882244775007" x2="452.84444400622004" y1="83.40232252887171" y2="87.74610300015235" stroke-width="2" stroke="gray" stroke-linecap="round"></line><line x1="713.1882244775006" x2="708.8444440062201" y1="83.40232252887171" y2="87.74610300015235" stroke-width="2" stroke="gray" stroke-linecap="round"></line><line x1="51.54222502949395" x2="45.23096206350587" y1="34.38705141530281" y2="40.698314381290885" stroke-width="2" stroke="gray" stroke-linecap="round"></line><line x1="51.54222502949395" x2="45.23096206350587" y1="-477.61294858469716" y2="-471.30168561870914" stroke-width="2" stroke="gray" stroke-linecap="round"></line><line x1="307.5422250294939" x2="301.2309620635059" y1="-477.61294858469716" y2="-471.30168561870914" stroke-width="2" stroke="gray" stroke-linecap="round"></line><line x1="563.5422250294939" x2="557.2309620635059" y1="-477.61294858469716" y2="-471.30168561870914" stroke-width="2" stroke="gray" stroke-linecap="round"></line><line x1="51.54222502949395" x2="45.23096206350587" y1="-221.6129485846972" y2="-215.30168561870912" stroke-width="2" stroke="gray" stroke-linecap="round"></line><line x1="307.5422250294939" x2="301.2309620635059" y1="-221.6129485846972" y2="-215.30168561870912" stroke-width="2" stroke="gray" stroke-linecap="round"></line><line x1="563.5422250294939" x2="557.2309620635059" y1="-221.6129485846972" y2="-215.30168561870912" stroke-width="2" stroke="gray" stroke-linecap="round"></line><line x1="51.54222502949395" x2="45.23096206350587" y1="34.38705141530281" y2="40.698314381290885" stroke-width="2" stroke="gray" stroke-linecap="round"></line><line x1="307.5422250294939" x2="301.2309620635059" y1="34.38705141530281" y2="40.698314381290885" stroke-width="2" stroke="gray" stroke-linecap="round"></line><line x1="563.5422250294939" x2="557.2309620635059" y1="34.38705141530281" y2="40.698314381290885" stroke-width="2" stroke="gray" stroke-linecap="round"></line><line x1="225.40696278201818" x2="221.90144456154138" y1="253.8868092450649" y2="257.3923274655417" stroke-width="2" stroke="gray" stroke-linecap="round"></line><line x1="225.40696278201818" x2="221.90144456154138" y1="-258.1131907549351" y2="-254.6076725344583" stroke-width="2" stroke="gray" stroke-linecap="round"></line><line x1="481.4069627820182" x2="477.9014445615414" y1="-258.1131907549351" y2="-254.6076725344583" stroke-width="2" stroke="gray" stroke-linecap="round"></line><line x1="737.4069627820181" x2="733.9014445615414" y1="-258.1131907549351" y2="-254.6076725344583" stroke-width="2" stroke="gray" stroke-linecap="round"></line><line x1="225.40696278201818" x2="221.90144456154138" y1="-2.11319075493509" y2="1.3923274655417117" stroke-width="2" stroke="gray" stroke-linecap="round"></line><line x1="481.4069627820182" x2="477.9014445615414" y1="-2.11319075493509" y2="1.3923274655417117" stroke-width="2" stroke="gray" stroke-linecap="round"></line><line x1="737.4069627820181" x2="733.9014445615414" y1="-2.11319075493509" y2="1.3923274655417117" stroke-width="2" stroke="gray" stroke-linecap="round"></line><line x1="225.40696278201818" x2="221.90144456154138" y1="253.8868092450649" y2="257.3923274655417" stroke-width="2" stroke="gray" stroke-linecap="round"></line><line x1="481.4069627820182" x2="477.9014445615414" y1="253.8868092450649" y2="257.3923274655417" stroke-width="2" stroke="gray" stroke-linecap="round"></line><line x1="737.4069627820181" x2="733.9014445615414" y1="253.8868092450649" y2="257.3923274655417" stroke-width="2" stroke="gray" stroke-linecap="round"></line><line x1="167.42827222343686" x2="164.73597380238" y1="27.88671977729126" y2="30.57901819834814" stroke-width="2" stroke="gray" stroke-linecap="round"></line><line x1="167.42827222343686" x2="164.73597380238" y1="-484.11328022270874" y2="-481.42098180165186" stroke-width="2" stroke="gray" stroke-linecap="round"></line><line x1="423.42827222343686" x2="420.73597380238" y1="-484.11328022270874" y2="-481.42098180165186" stroke-width="2" stroke="gray" stroke-linecap="round"></line><line x1="679.4282722234368" x2="676.7359738023799" y1="-484.11328022270874" y2="-481.42098180165186" stroke-width="2" stroke="gray" stroke-linecap="round"></line><line x1="167.42827222343686" x2="164.73597380238" y1="-228.11328022270874" y2="-225.42098180165186" stroke-width="2" stroke="gray" stroke-linecap="round"></line><line x1="423.42827222343686" x2="420.73597380238" y1="-228.11328022270874" y2="-225.42098180165186" stroke-width="2" stroke="gray" stroke-linecap="round"></line><line x1="679.4282722234368" x2="676.7359738023799" y1="-228.11328022270874" y2="-225.42098180165186" stroke-width="2" stroke="gray" stroke-linecap="round"></line><line x1="167.42827222343686" x2="164.73597380238" y1="27.88671977729126" y2="30.57901819834814" stroke-width="2" stroke="gray" stroke-linecap="round"></line><line x1="423.42827222343686" x2="420.73597380238" y1="27.88671977729126" y2="30.57901819834814" stroke-width="2" stroke="gray" stroke-linecap="round"></line><line x1="679.4282722234368" x2="676.7359738023799" y1="27.88671977729126" y2="30.57901819834814" stroke-width="2" stroke="gray" stroke-linecap="round"></line>
  <animateTransform attributeName="transform" type="translate" values="0 0;-256 256" keyTimes="0;1" repeatCount="indefinite" dur="0.555947712418301s"></animateTransform>
</g></g>
  </pattern>
</defs>
<rect x="0" y="0" width="1084" height="1022" fill="url(#pid-0.671846779428106)"></rect>

</svg>